# xmcd CD database file
#
# Track frame offsets:
#	150
#	12356
#	31792
#	43437
#	55785
#	68531
#	86491
#	99420
#	120266
#	133453
#	145276
#	168160
#	180122
#	196461
#	209170
#
# Disc length: 2969 seconds
#
# Revision: 0
# Processed by: cddbd v1.5.2PL0 Copyright (c) Steve Scherf et al.
# Submitted via: CDex 1.51
#
DISCID=cd0b970f
DTITLE=Various Artist - SUPERSTARS OF COUNTRY "1970'S COUNTRY" (Disk 1)
DYEAR=1900
DGENRE=Country
TTITLE0=DOLLY PARTON - JOLENE
TTITLE1=KENNY ROGERS - COWARD OF THE COUNTY
TTITLE2=JOHNNY CASH - A THING CALLED LOVE
TTITLE3=BILLIE JO SPEARS - WHAT I'VE GOT IN MIND
TTITLE4=JERRY LEE LEWIS - CHANTILLY LACE
TTITLE5=LINDA RONSTADT - CRAZY
TTITLE6=EDDIE RABBITT - EVERY WHICH WAY BUT LOOSE
TTITLE7=BOBBY GOLDSBORO - SUMMER (THE FIRST TIME)
TTITLE8=WAYLON JENNINGS - ARE YOU SURE HANK DONE IT THIS WAY
TTITLE9=TAMMY WYNETTE - I DON'T WANNA PLAY HOUSE
TTITLE10=RED SOVINE - TEDDY BEAR
TTITLE11=CONWAY TWITTY and LORETTA LYNN - IT'S ONLY MAKE BELIEVE
TTITLE12=MARTY ROBBINS - ADIOS AMIGO
TTITLE13=DON WILLIAMS - YOU'RE MY BEST FRIEND
TTITLE14=JOHN DENVER - ANNIE'S SONG
EXTD=
EXTT0=
EXTT1=
EXTT2=
EXTT3=
EXTT4=
EXTT5=
EXTT6=
EXTT7=
EXTT8=
EXTT9=
EXTT10=
EXTT11=
EXTT12=
EXTT13=
EXTT14=
PLAYORDER=
